<svg width="18" height="18" viewBox="0 0 18 18" fill="none" xmlns="http://www.w3.org/2000/svg">
<path d="M9 0C7.89833 0 6.84178 0.437636 6.06279 1.21663C5.28379 1.99563 4.84615 3.05218 4.84615 4.15385C4.84615 6.44815 8.45931 12.1452 8.45931 15.2308H9.54069C9.54069 12.1555 13.1538 6.26123 13.1538 4.15385C13.1538 3.05218 12.7162 1.99563 11.9372 1.21663C11.1582 0.437636 10.1017 0 9 0V0ZM9 2.07692C9.55083 2.07692 10.0791 2.29574 10.4686 2.68524C10.8581 3.07474 11.0769 3.60301 11.0769 4.15385C11.0769 4.70468 10.8581 5.23295 10.4686 5.62245C10.0791 6.01195 9.55083 6.23077 9 6.23077C8.44917 6.23077 7.92089 6.01195 7.53139 5.62245C7.14189 5.23295 6.92308 4.70468 6.92308 4.15385C6.92308 3.60301 7.14189 3.07474 7.53139 2.68524C7.92089 2.29574 8.44917 2.07692 9 2.07692ZM4.73815 11.9638C4.72336 11.9706 4.70881 11.978 4.69454 11.9859C3.41723 12.2102 2.33446 12.5176 1.51477 12.9378C1.10423 13.1476 0.750462 13.3962 0.476308 13.6945C0.201462 13.9936 0 14.382 0 14.8195C0 15.4758 0.434769 15.9888 0.951923 16.3558C1.46908 16.7227 2.12192 17.0031 2.92085 17.2426C4.51662 17.7217 6.64962 18 9 18C11.3504 18 13.4834 17.7217 15.0792 17.2426C15.8774 17.0031 16.5309 16.7234 17.0481 16.3558C17.5652 15.9888 18 15.4758 18 14.8195C18 14.3806 17.7992 13.9722 17.5237 13.6731C17.2482 13.374 16.8978 13.1476 16.4852 12.9372C15.6614 12.5169 14.5682 12.2095 13.2833 11.9852C13.193 11.9677 13.1 11.9684 13.01 11.9872C12.9199 12.0061 12.8345 12.0426 12.7587 12.0949C12.6829 12.1471 12.6183 12.2139 12.5687 12.2914C12.519 12.3689 12.4853 12.4555 12.4695 12.5461C12.4538 12.6368 12.4562 12.7297 12.4767 12.8194C12.4973 12.9091 12.5355 12.9938 12.5892 13.0686C12.6428 13.1433 12.7108 13.2066 12.7893 13.2548C12.8677 13.303 12.9549 13.335 13.0458 13.3491C14.2387 13.5568 15.2301 13.851 15.858 14.1708C16.1723 14.3301 16.3932 14.5011 16.5074 14.625C16.6216 14.7489 16.6154 14.7981 16.6154 14.8195C16.6154 14.8521 16.5711 15.0016 16.2478 15.2308C15.9245 15.4599 15.3734 15.7112 14.6679 15.9231C13.2577 16.3461 11.2375 16.6154 9 16.6154C6.76246 16.6154 4.74231 16.3461 3.33138 15.9231C2.62662 15.7112 2.07554 15.4599 1.75292 15.2308C1.42892 15.0016 1.38462 14.8521 1.38462 14.8195C1.38462 14.7988 1.37977 14.7482 1.49262 14.625C1.60615 14.5018 1.82977 14.3301 2.142 14.1708C2.76508 13.8517 3.74677 13.5575 4.93269 13.3484C5.02494 13.3372 5.11404 13.3077 5.19477 13.2617C5.2755 13.2157 5.34624 13.154 5.40286 13.0803C5.45949 13.0066 5.50085 12.9224 5.52455 12.8325C5.54824 12.7427 5.55379 12.649 5.54086 12.557C5.52793 12.4649 5.49678 12.3764 5.44925 12.2966C5.40171 12.2167 5.33873 12.1471 5.26399 12.0919C5.18926 12.0367 5.10426 11.9969 5.01398 11.9749C4.92369 11.9529 4.82992 11.9491 4.73815 11.9638Z" fill="url(#paint0_linear)"/>
<defs>
<linearGradient id="paint0_linear" x1="9" y1="0" x2="9" y2="18" gradientUnits="userSpaceOnUse">
<stop stop-color="#FFA801"/>
<stop offset="1" stop-color="#FF6B01"/>
</linearGradient>
</defs>
</svg>
